<svg width="165" height="56" viewBox="0 0 165 56" fill="none" xmlns="http://www.w3.org/2000/svg">
<g filter="url(#filter0_d_140_3077)">
<path d="M83.124 38.1285L90.3305 29.8315L85.5041 21.6006H91.6197L93.9668 25.6003L97.4709 21.6006H103.586L96.4461 29.8315L101.339 38.1285H95.223L92.7767 34.0296L89.2396 38.1285H83.124Z" fill="white"/>
</g>
<g filter="url(#filter1_d_140_3077)">
<path d="M74.4628 38.5582C72.9422 38.5582 71.6088 38.167 70.4629 37.3847C69.3279 36.6023 68.4794 35.5556 67.9175 34.2444C67.3665 32.9221 67.2012 31.4622 67.4216 29.8645C67.5869 28.6524 67.956 27.523 68.529 26.4762C69.113 25.4184 69.8403 24.4929 70.7108 23.6995C71.5813 22.8952 72.5455 22.2671 73.6033 21.8153C74.6722 21.3636 75.7741 21.1377 76.909 21.1377C78.4297 21.1377 79.7575 21.5289 80.8924 22.3112C82.0384 23.0935 82.8924 24.1458 83.4544 25.468C84.0163 26.7903 84.1816 28.2557 83.9502 29.8645C83.7849 31.0655 83.4103 32.1894 82.8263 33.2362C82.2533 34.2829 81.5315 35.2085 80.661 36.0128C79.7905 36.8062 78.8263 37.4287 77.7685 37.8805C76.7107 38.3323 75.6088 38.5582 74.4628 38.5582ZM75.157 33.5998C75.7851 33.5998 76.3691 33.429 76.909 33.0874C77.46 32.7458 77.9228 32.2941 78.2974 31.7321C78.6721 31.1591 78.9035 30.5366 78.9916 29.8645C79.0908 29.1703 79.0302 28.5367 78.8098 27.9637C78.5894 27.3908 78.2478 26.939 77.785 26.6084C77.3333 26.2669 76.8099 26.0961 76.2148 26.0961C75.5978 26.0961 75.0137 26.2724 74.4628 26.625C73.9118 26.9666 73.449 27.4238 73.0744 27.9968C72.7108 28.5698 72.4794 29.1923 72.3802 29.8645C72.281 30.5696 72.3416 31.2032 72.562 31.7652C72.7934 32.3271 73.135 32.7734 73.5868 33.1039C74.0386 33.4345 74.562 33.5998 75.157 33.5998Z" fill="white"/>
</g>
<g filter="url(#filter2_d_140_3077)">
<path d="M48.3068 38.1266L51.5464 14.9875H60.3066C61.5738 14.9875 62.6812 15.2519 63.6289 15.7808C64.5875 16.2987 65.2982 17.037 65.761 17.9956C66.2349 18.9542 66.3781 20.0781 66.1908 21.3673C66.1247 21.8521 65.9924 22.3645 65.7941 22.9044C65.6068 23.4333 65.3258 23.9291 64.9511 24.3919C64.5765 24.8547 64.0806 25.2183 63.4636 25.4827C64.1798 25.659 64.7197 25.9896 65.0834 26.4744C65.447 26.9592 65.6894 27.5212 65.8106 28.1603C65.9429 28.7883 65.9924 29.4274 65.9594 30.0775C65.9374 30.7166 65.8878 31.2951 65.8106 31.8129C65.6564 32.9809 65.1936 34.0442 64.4222 35.0028C63.6619 35.9504 62.7143 36.7107 61.5793 37.2837C60.4443 37.8456 59.2377 38.1266 57.9595 38.1266H48.3068ZM53.8439 33.9285H58.0091C58.5821 33.9285 59.122 33.7963 59.6289 33.5318C60.1468 33.2564 60.5766 32.8817 60.9182 32.4079C61.2708 31.9341 61.4856 31.3942 61.5628 30.7882C61.6399 30.2814 61.5683 29.802 61.3479 29.3503C61.1275 28.8875 60.8025 28.5129 60.3727 28.2264C59.943 27.9399 59.4416 27.7966 58.8686 27.7966H54.7034L53.8439 33.9285ZM55.2984 23.6647H58.505C59.1661 23.6647 59.7612 23.4443 60.2901 23.0035C60.83 22.5628 61.144 22.0064 61.2322 21.3342C61.3314 20.6511 61.1661 20.1277 60.7363 19.7641C60.3176 19.4005 59.7777 19.2186 59.1165 19.2186H55.91L55.2984 23.6647Z" fill="white"/>
</g>
<g filter="url(#filter3_d_140_3077)">
<path d="M34.03 38.5585C32.4653 38.5585 31.0328 38.25 29.7326 37.633C28.4433 37.0049 27.3525 36.1399 26.4599 35.0381C25.5784 33.9362 24.9393 32.6636 24.5426 31.2201C24.1569 29.7657 24.0798 28.212 24.3112 26.5592C24.5426 24.9064 25.055 23.3583 25.8484 21.9149C26.6417 20.4604 27.639 19.1823 28.84 18.0804C30.0521 16.9785 31.391 16.1191 32.8565 15.502C34.322 14.874 35.8371 14.5599 37.4019 14.5599C38.9776 14.5599 40.4101 14.874 41.6993 15.502C42.9885 16.1191 44.0739 16.9785 44.9554 18.0804C45.848 19.1823 46.4871 20.4604 46.8728 21.9149C47.2694 23.3583 47.3521 24.9064 47.1207 26.5592C46.8893 28.212 46.3769 29.7657 45.5835 31.2201C44.7902 32.6636 43.7874 33.9362 42.5753 35.0381C41.3742 36.1399 40.0409 37.0049 38.5754 37.633C37.1209 38.25 35.6057 38.5585 34.03 38.5585ZM34.7242 33.6001C35.6057 33.6001 36.4597 33.4183 37.2862 33.0547C38.1236 32.6801 38.8839 32.1732 39.5671 31.5341C40.2503 30.884 40.8178 30.1348 41.2696 29.2863C41.7324 28.4379 42.0299 27.5289 42.1621 26.5592C42.2943 25.5896 42.2502 24.6806 42.0299 23.8321C41.8205 22.9837 41.4624 22.2399 40.9555 21.6008C40.4597 20.9507 39.8481 20.4439 39.1208 20.0803C38.3936 19.7056 37.5892 19.5183 36.7077 19.5183C35.8261 19.5183 34.9666 19.7056 34.1292 20.0803C33.3028 20.4439 32.548 20.9507 31.8648 21.6008C31.1816 22.2399 30.6086 22.9837 30.1458 23.8321C29.694 24.6806 29.402 25.5896 29.2698 26.5592C29.1375 27.5289 29.1761 28.4379 29.3855 29.2863C29.6059 30.1348 29.964 30.884 30.4598 31.5341C30.9667 32.1732 31.5838 32.6801 32.311 33.0547C33.0383 33.4183 33.8427 33.6001 34.7242 33.6001Z" fill="white"/>
</g>
<g filter="url(#filter4_d_140_3077)">
<path d="M4.49939 38.1268L7.739 14.9877H16.4661C17.7333 14.9877 18.8352 15.3127 19.7718 15.9628C20.7195 16.6019 21.4192 17.4614 21.871 18.5412C22.3338 19.61 22.4715 20.7835 22.2842 22.0616C22.1079 23.3618 21.6285 24.5463 20.8462 25.6151C20.0749 26.684 19.1272 27.5379 18.0033 28.177C16.8793 28.8161 15.7058 29.1356 14.4827 29.1356H10.7142L9.45798 38.1268H4.49939ZM11.4084 24.1772H14.6149C15.0557 24.1772 15.4744 24.067 15.8711 23.8467C16.2678 23.6153 16.6038 23.3122 16.8793 22.9376C17.1548 22.563 17.3201 22.1498 17.3752 21.698C17.4413 21.2463 17.3917 20.8331 17.2264 20.4584C17.0611 20.0838 16.8077 19.7863 16.4661 19.5659C16.1355 19.3345 15.7499 19.2188 15.3091 19.2188H12.1026L11.4084 24.1772Z" fill="white"/>
</g>
<g filter="url(#filter5_ddii_140_3077)">
<path d="M111.818 14.4548C112.414 9.69123 112.711 7.30942 113.832 5.51455C114.82 3.93318 116.247 2.67363 117.938 1.88973C119.859 1 122.259 1 127.06 1H144.1C150.114 1 153.12 1 155.3 2.21484C157.213 3.28157 158.704 4.97072 159.525 7.00184C160.461 9.31498 160.088 12.2984 159.342 18.2652L157.182 35.5452C156.586 40.3088 156.289 42.6906 155.168 44.4855C154.18 46.0668 152.753 47.3264 151.062 48.1103C149.141 49 146.741 49 141.94 49H124.9C118.886 49 115.88 49 113.7 47.7852C111.787 46.7184 110.296 45.0293 109.475 42.9982C108.539 40.685 108.912 37.7016 109.658 31.7348L111.818 14.4548Z" fill="#FBBF24"/>
<path d="M127.06 2H144.101C147.125 2 149.33 2.00108 151.053 2.14844C152.766 2.29493 153.901 2.57967 154.812 3.08789C156.527 4.0435 157.863 5.55741 158.599 7.37695C158.99 8.34481 159.132 9.50678 159.064 11.2246C158.997 12.9527 158.725 15.141 158.35 18.1416L156.189 35.4209C155.89 37.818 155.671 39.56 155.392 40.9287C155.115 42.285 154.791 43.2002 154.319 43.9561C153.435 45.3726 152.156 46.5009 150.641 47.2031C149.832 47.5777 148.884 47.785 147.504 47.8916C146.111 47.9991 144.356 48 141.94 48H124.899C121.875 48 119.67 47.9989 117.947 47.8516C116.234 47.7051 115.099 47.4203 114.188 46.9121C112.473 45.9565 111.137 44.4426 110.401 42.623C110.01 41.6552 109.868 40.4932 109.936 38.7754C110.003 37.0473 110.275 34.859 110.65 31.8584L112.811 14.5791C113.11 12.182 113.329 10.44 113.608 9.07129C113.885 7.71497 114.209 6.79981 114.681 6.04395C115.565 4.62745 116.844 3.49907 118.359 2.79688C119.168 2.42229 120.116 2.21498 121.496 2.1084C122.889 2.00087 124.644 2 127.06 2Z" stroke="white" stroke-opacity="0.2" stroke-width="2"/>
</g>
<g filter="url(#filter6_d_140_3077)">
<path d="M141.759 36.758L144.373 18.091H141.148L143.219 13H150.176L146.85 36.758H141.759Z" fill="white"/>
<path d="M126.76 37.1992C125.188 37.1992 123.825 36.8202 122.671 36.0622C121.517 35.2929 120.662 34.2804 120.108 33.0246C119.554 31.7575 119.378 30.3773 119.582 28.8839H124.673C124.594 29.4835 124.662 30.0266 124.877 30.513C125.103 30.9995 125.442 31.3898 125.895 31.684C126.347 31.9668 126.874 32.1082 127.473 32.1082C128.061 32.1082 128.621 31.9668 129.153 31.684C129.685 31.3898 130.132 30.9995 130.494 30.513C130.856 30.0266 131.076 29.4835 131.156 28.8839C131.246 28.2843 131.207 27.7356 131.037 27.2378C130.878 26.7287 130.516 26.3214 129.951 26.016C129.385 25.7105 128.537 25.5578 127.405 25.5578H121.126L125.539 13H137.519L136.807 18.091H128.966L128.135 20.4668L129.204 20.5007C130.811 20.5686 132.174 20.9816 133.294 21.7395C134.425 22.4975 135.251 23.4988 135.771 24.7432C136.303 25.9877 136.462 27.3679 136.247 28.8839C136.088 30.0153 135.721 31.0844 135.144 32.0912C134.578 33.0981 133.859 33.9862 132.988 34.7555C132.129 35.5135 131.161 36.1131 130.086 36.5544C129.023 36.9843 127.914 37.1992 126.76 37.1992Z" fill="white"/>
</g>
<g filter="url(#filter7_f_140_3077)">
<path d="M128.58 7.28756L127.292 12.5634L132.212 13.3009L126.736 14.4718L123.314 20.0774L124.839 14.5483L119.433 13.8157L125.394 12.6399L128.58 7.28756Z" fill="white"/>
</g>
<defs>
<filter id="filter0_d_140_3077" x="79.124" y="20.6006" width="28.4625" height="24.528" filterUnits="userSpaceOnUse" color-interpolation-filters="sRGB">
<feFlood flood-opacity="0" result="BackgroundImageFix"/>
<feColorMatrix in="SourceAlpha" type="matrix" values="0 0 0 0 0 0 0 0 0 0 0 0 0 0 0 0 0 0 127 0" result="hardAlpha"/>
<feOffset dy="3"/>
<feGaussianBlur stdDeviation="2"/>
<feComposite in2="hardAlpha" operator="out"/>
<feColorMatrix type="matrix" values="0 0 0 0 0.164706 0 0 0 0 0.164706 0 0 0 0 0.164706 0 0 0 0.14 0"/>
<feBlend mode="normal" in2="BackgroundImageFix" result="effect1_dropShadow_140_3077"/>
<feBlend mode="normal" in="SourceGraphic" in2="effect1_dropShadow_140_3077" result="shape"/>
</filter>
<filter id="filter1_d_140_3077" x="63.3271" y="20.1377" width="24.7243" height="25.4205" filterUnits="userSpaceOnUse" color-interpolation-filters="sRGB">
<feFlood flood-opacity="0" result="BackgroundImageFix"/>
<feColorMatrix in="SourceAlpha" type="matrix" values="0 0 0 0 0 0 0 0 0 0 0 0 0 0 0 0 0 0 127 0" result="hardAlpha"/>
<feOffset dy="3"/>
<feGaussianBlur stdDeviation="2"/>
<feComposite in2="hardAlpha" operator="out"/>
<feColorMatrix type="matrix" values="0 0 0 0 0.164706 0 0 0 0 0.164706 0 0 0 0 0.164706 0 0 0 0.14 0"/>
<feBlend mode="normal" in2="BackgroundImageFix" result="effect1_dropShadow_140_3077"/>
<feBlend mode="normal" in="SourceGraphic" in2="effect1_dropShadow_140_3077" result="shape"/>
</filter>
<filter id="filter2_d_140_3077" x="44.3068" y="13.9875" width="25.9636" height="31.1391" filterUnits="userSpaceOnUse" color-interpolation-filters="sRGB">
<feFlood flood-opacity="0" result="BackgroundImageFix"/>
<feColorMatrix in="SourceAlpha" type="matrix" values="0 0 0 0 0 0 0 0 0 0 0 0 0 0 0 0 0 0 127 0" result="hardAlpha"/>
<feOffset dy="3"/>
<feGaussianBlur stdDeviation="2"/>
<feComposite in2="hardAlpha" operator="out"/>
<feColorMatrix type="matrix" values="0 0 0 0 0.164706 0 0 0 0 0.164706 0 0 0 0 0.164706 0 0 0 0.14 0"/>
<feBlend mode="normal" in2="BackgroundImageFix" result="effect1_dropShadow_140_3077"/>
<feBlend mode="normal" in="SourceGraphic" in2="effect1_dropShadow_140_3077" result="shape"/>
</filter>
<filter id="filter3_d_140_3077" x="20.181" y="13.5599" width="31.0676" height="31.9986" filterUnits="userSpaceOnUse" color-interpolation-filters="sRGB">
<feFlood flood-opacity="0" result="BackgroundImageFix"/>
<feColorMatrix in="SourceAlpha" type="matrix" values="0 0 0 0 0 0 0 0 0 0 0 0 0 0 0 0 0 0 127 0" result="hardAlpha"/>
<feOffset dy="3"/>
<feGaussianBlur stdDeviation="2"/>
<feComposite in2="hardAlpha" operator="out"/>
<feColorMatrix type="matrix" values="0 0 0 0 0.164706 0 0 0 0 0.164706 0 0 0 0 0.164706 0 0 0 0.14 0"/>
<feBlend mode="normal" in2="BackgroundImageFix" result="effect1_dropShadow_140_3077"/>
<feBlend mode="normal" in="SourceGraphic" in2="effect1_dropShadow_140_3077" result="shape"/>
</filter>
<filter id="filter4_d_140_3077" x="0.499389" y="13.9877" width="25.8658" height="31.1392" filterUnits="userSpaceOnUse" color-interpolation-filters="sRGB">
<feFlood flood-opacity="0" result="BackgroundImageFix"/>
<feColorMatrix in="SourceAlpha" type="matrix" values="0 0 0 0 0 0 0 0 0 0 0 0 0 0 0 0 0 0 127 0" result="hardAlpha"/>
<feOffset dy="3"/>
<feGaussianBlur stdDeviation="2"/>
<feComposite in2="hardAlpha" operator="out"/>
<feColorMatrix type="matrix" values="0 0 0 0 0.164706 0 0 0 0 0.164706 0 0 0 0 0.164706 0 0 0 0.14 0"/>
<feBlend mode="normal" in2="BackgroundImageFix" result="effect1_dropShadow_140_3077"/>
<feBlend mode="normal" in="SourceGraphic" in2="effect1_dropShadow_140_3077" result="shape"/>
</filter>
<filter id="filter5_ddii_140_3077" x="104.919" y="-2" width="59.1616" height="58" filterUnits="userSpaceOnUse" color-interpolation-filters="sRGB">
<feFlood flood-opacity="0" result="BackgroundImageFix"/>
<feColorMatrix in="SourceAlpha" type="matrix" values="0 0 0 0 0 0 0 0 0 0 0 0 0 0 0 0 0 0 127 0" result="hardAlpha"/>
<feOffset dy="1"/>
<feGaussianBlur stdDeviation="0.5"/>
<feComposite in2="hardAlpha" operator="out"/>
<feColorMatrix type="matrix" values="0 0 0 0 0.162923 0 0 0 0 0.162923 0 0 0 0 0.162923 0 0 0 0.08 0"/>
<feBlend mode="normal" in2="BackgroundImageFix" result="effect1_dropShadow_140_3077"/>
<feColorMatrix in="SourceAlpha" type="matrix" values="0 0 0 0 0 0 0 0 0 0 0 0 0 0 0 0 0 0 127 0" result="hardAlpha"/>
<feOffset dy="3"/>
<feGaussianBlur stdDeviation="2"/>
<feComposite in2="hardAlpha" operator="out"/>
<feColorMatrix type="matrix" values="0 0 0 0 0.164706 0 0 0 0 0.164706 0 0 0 0 0.164706 0 0 0 0.14 0"/>
<feBlend mode="normal" in2="effect1_dropShadow_140_3077" result="effect2_dropShadow_140_3077"/>
<feBlend mode="normal" in="SourceGraphic" in2="effect2_dropShadow_140_3077" result="shape"/>
<feColorMatrix in="SourceAlpha" type="matrix" values="0 0 0 0 0 0 0 0 0 0 0 0 0 0 0 0 0 0 127 0" result="hardAlpha"/>
<feOffset dy="-3"/>
<feGaussianBlur stdDeviation="1.5"/>
<feComposite in2="hardAlpha" operator="arithmetic" k2="-1" k3="1"/>
<feColorMatrix type="matrix" values="0 0 0 0 0 0 0 0 0 0 0 0 0 0 0 0 0 0 0.1 0"/>
<feBlend mode="normal" in2="shape" result="effect3_innerShadow_140_3077"/>
<feColorMatrix in="SourceAlpha" type="matrix" values="0 0 0 0 0 0 0 0 0 0 0 0 0 0 0 0 0 0 127 0" result="hardAlpha"/>
<feOffset dy="3"/>
<feGaussianBlur stdDeviation="1.5"/>
<feComposite in2="hardAlpha" operator="arithmetic" k2="-1" k3="1"/>
<feColorMatrix type="matrix" values="0 0 0 0 1 0 0 0 0 1 0 0 0 0 1 0 0 0 0.1 0"/>
<feBlend mode="normal" in2="effect3_innerShadow_140_3077" result="effect4_innerShadow_140_3077"/>
</filter>
<filter id="filter6_d_140_3077" x="109.5" y="7" width="50.6765" height="44.1992" filterUnits="userSpaceOnUse" color-interpolation-filters="sRGB">
<feFlood flood-opacity="0" result="BackgroundImageFix"/>
<feColorMatrix in="SourceAlpha" type="matrix" values="0 0 0 0 0 0 0 0 0 0 0 0 0 0 0 0 0 0 127 0" result="hardAlpha"/>
<feOffset dy="4"/>
<feGaussianBlur stdDeviation="5"/>
<feComposite in2="hardAlpha" operator="out"/>
<feColorMatrix type="matrix" values="0 0 0 0 0 0 0 0 0 0 0 0 0 0 0 0 0 0 0.24 0"/>
<feBlend mode="normal" in2="BackgroundImageFix" result="effect1_dropShadow_140_3077"/>
<feBlend mode="normal" in="SourceGraphic" in2="effect1_dropShadow_140_3077" result="shape"/>
</filter>
<filter id="filter7_f_140_3077" x="117.929" y="5.78292" width="15.788" height="15.7991" filterUnits="userSpaceOnUse" color-interpolation-filters="sRGB">
<feFlood flood-opacity="0" result="BackgroundImageFix"/>
<feBlend mode="normal" in="SourceGraphic" in2="BackgroundImageFix" result="shape"/>
<feGaussianBlur stdDeviation="0.752306" result="effect1_foregroundBlur_140_3077"/>
</filter>
</defs>
</svg>
