<svg width="30" height="30" viewBox="0 0 30 30" fill="none" xmlns="http://www.w3.org/2000/svg">
<path d="M15.0004 23.75C14.7522 23.7515 14.5091 23.679 14.3022 23.5417C14.0953 23.4044 13.9339 23.2087 13.8387 22.9794C13.7435 22.7501 13.7187 22.4976 13.7676 22.2542C13.8164 22.0107 13.9366 21.7874 14.1129 21.6125L20.7379 15L14.1129 8.38753C13.9082 8.14841 13.8011 7.84081 13.8133 7.52622C13.8254 7.21162 13.9559 6.9132 14.1785 6.69058C14.4011 6.46796 14.6995 6.33755 15.0141 6.3254C15.3287 6.31324 15.6363 6.42025 15.8754 6.62503L23.3754 14.125C23.6082 14.3592 23.7389 14.6761 23.7389 15.0063C23.7389 15.3365 23.6082 15.6533 23.3754 15.8875L15.8754 23.3875C15.6426 23.6185 15.3284 23.7487 15.0004 23.75Z" fill="white"/>
<path opacity="0.5" d="M6.50043 23.75C6.25215 23.7514 6.00907 23.6789 5.80217 23.5417C5.59527 23.4044 5.43393 23.2086 5.33872 22.9793C5.24351 22.75 5.21875 22.4976 5.26758 22.2541C5.31642 22.0107 5.43665 21.7873 5.61293 21.6125L12.2379 15L5.61293 8.38749C5.37755 8.15211 5.24532 7.83287 5.24532 7.49999C5.24532 7.16711 5.37755 6.84787 5.61293 6.61249C5.84831 6.37711 6.16756 6.24487 6.50043 6.24487C6.83331 6.24487 7.15255 6.37711 7.38793 6.61249L14.8879 14.1125C15.1207 14.3467 15.2514 14.6635 15.2514 14.9937C15.2514 15.324 15.1207 15.6408 14.8879 15.875L7.38793 23.375C7.27217 23.4931 7.13411 23.5871 6.98177 23.6514C6.82942 23.7158 6.66582 23.7493 6.50043 23.75Z" fill="white"/>
</svg>
