<svg width="24" height="25" viewBox="0 0 24 25" fill="none" xmlns="http://www.w3.org/2000/svg">
<path d="M19.1429 1.22858H6.48396C5.00488 1.22925 3.80589 2.42807 3.80539 3.90715V5.06429H2.54646C2.25047 5.06429 2.01074 5.30419 2.01074 5.60001C2.01074 5.89582 2.25047 6.13572 2.54646 6.13572H3.79986V9.65001H2.54646C2.25047 9.65001 2.01074 9.88974 2.01074 10.1857C2.01074 10.4815 2.25047 10.7214 2.54646 10.7214H3.79986V14.2357H2.54646C2.25047 14.2357 2.01074 14.4756 2.01074 14.7714C2.01074 15.0674 2.25047 15.3071 2.54646 15.3071H3.79986V18.8214H2.54646C2.25047 18.8214 2.01074 19.0613 2.01074 19.3571C2.01074 19.653 2.25047 19.8929 2.54646 19.8929H3.79986V21.05C3.80053 22.5291 4.99936 23.7279 6.47843 23.7286H19.1374C20.6164 23.7279 21.8156 22.5291 21.8159 21.05V3.90715C21.8181 2.42908 20.621 1.22958 19.1429 1.22858ZM20.75 21.05C20.7474 21.9364 20.0293 22.6546 19.1429 22.6571H6.48396C5.59752 22.6546 4.87932 21.9364 4.87681 21.05V19.8929H6.13022C6.4262 19.8929 6.66593 19.653 6.66593 19.3571C6.66593 19.0613 6.4262 18.8214 6.13022 18.8214H4.87681V15.3071H6.13022C6.4262 15.3071 6.66593 15.0674 6.66593 14.7714C6.66593 14.4756 6.4262 14.2357 6.13022 14.2357H4.87681V10.7214H6.13022C6.4262 10.7214 6.66593 10.4815 6.66593 10.1857C6.66593 9.88974 6.4262 9.65001 6.13022 9.65001H4.87681V6.13572H6.13022C6.4262 6.13572 6.66593 5.89582 6.66593 5.60001C6.66593 5.30419 6.4262 5.06429 6.13022 5.06429H4.87681V3.90715C4.87932 3.02071 5.59752 2.30252 6.48396 2.30001H19.1429C20.0293 2.30252 20.7474 3.02071 20.75 3.90715V21.05Z" fill="#051C5B"/>
<path d="M12.8107 12.3232C14.2456 12.3232 15.409 11.16 15.409 9.725C15.409 8.28995 14.2456 7.12679 12.8107 7.12679C11.3757 7.12679 10.2125 8.28995 10.2125 9.725C10.2139 11.1594 11.3762 12.3219 12.8107 12.3232ZM12.8107 8.19286C13.6538 8.19286 14.3375 8.87656 14.3375 9.71964C14.3375 10.5627 13.6538 11.2464 12.8107 11.2464C11.9675 11.2464 11.284 10.5627 11.284 9.71964C11.2855 8.87723 11.968 8.19436 12.8107 8.19286Z" fill="#051C5B"/>
<path d="M12.8107 13.1857C10.5822 13.1857 8.83557 14.9911 8.83557 17.3C8.83641 17.5955 9.07581 17.8349 9.37129 17.8357H16.25C16.5455 17.8349 16.7849 17.5955 16.7857 17.3C16.7857 14.9911 15.0391 13.1857 12.8107 13.1857ZM9.94986 16.7643C10.1804 15.3018 11.3322 14.2571 12.8107 14.2571C14.2891 14.2571 15.4465 15.3018 15.6715 16.7643H9.94986Z" fill="#051C5B"/>
</svg>
