<svg width="158" height="118" viewBox="0 0 158 118" fill="none" xmlns="http://www.w3.org/2000/svg">
<path fill-rule="evenodd" clip-rule="evenodd" d="M103.357 102.579H15.4389C6.92726 102.579 0.00146484 95.6518 0.00146484 87.1402V16.3037C0.00146484 7.79206 6.92634 0.866264 15.4389 0.866264H114.419C122.931 0.866264 129.857 7.79114 129.857 16.3037V59C129.857 61.4376 126.154 61.4376 126.154 59V16.3037C126.154 9.83342 120.891 4.56941 114.421 4.56941H15.4389C8.96862 4.56941 3.7046 9.83342 3.7046 16.3037V87.1429C3.7046 93.6132 8.96862 98.8773 15.4389 98.8773L103.357 98.8763C105.794 98.8763 105.795 102.579 103.357 102.579V102.579Z" fill="#E5002B"/>
<path fill-rule="evenodd" clip-rule="evenodd" d="M64.928 53.574C64.6206 53.574 64.3105 53.4971 64.0225 53.336L0.947885 17.9164C-1.17587 16.724 0.63497 13.493 2.76057 14.6892L65.8371 50.1088C67.4961 51.0401 66.8193 53.574 64.928 53.574Z" fill="#E5002B"/>
<path fill-rule="evenodd" clip-rule="evenodd" d="M64.9314 53.574C63.0401 53.574 62.3633 51.0401 64.0223 50.1088L127.099 14.6892C129.223 13.4958 131.039 16.7231 128.912 17.9164L65.8359 53.336C65.5499 53.4981 65.2379 53.574 64.9314 53.574Z" fill="#E5002B"/>
<path fill-rule="evenodd" clip-rule="evenodd" d="M128.005 117.134C111.467 117.134 98.0117 103.677 98.0117 87.1402C98.0117 70.6029 111.466 57.1475 128.005 57.1475C144.544 57.1475 157.999 70.6019 157.999 87.1402C157.999 103.677 144.544 117.134 128.005 117.134ZM128.005 60.8516C113.509 60.8516 101.716 72.6451 101.716 87.1411C101.716 101.637 113.509 113.43 128.005 113.43C142.501 113.43 154.294 101.636 154.294 87.1411C154.294 72.6451 142.5 60.8516 128.005 60.8516Z" fill="#002382"/>
<path fill-rule="evenodd" clip-rule="evenodd" d="M123.079 97.4127C122.606 97.4127 122.131 97.2312 121.769 96.8692L114.785 89.8851C113.058 88.1585 115.682 85.5423 117.404 87.2661L123.078 92.9411L138.604 77.4139C140.33 75.6873 142.947 78.3119 141.224 80.0338L124.388 96.8692C124.027 97.2312 123.552 97.4127 123.08 97.4127H123.079Z" fill="#002382"/>
<path fill-rule="evenodd" clip-rule="evenodd" d="M47.6397 63.4595H16.3954C13.9587 63.4595 13.9587 59.7564 16.3954 59.7564H47.6397C50.0773 59.7564 50.0773 63.4595 47.6397 63.4595Z" fill="#E5002B"/>
<path fill-rule="evenodd" clip-rule="evenodd" d="M47.6397 73.682H16.3954C13.9587 73.682 13.9587 69.9789 16.3954 69.9789H47.6397C50.0773 69.9789 50.0773 73.682 47.6397 73.682Z" fill="#E5002B"/>
<path fill-rule="evenodd" clip-rule="evenodd" d="M47.6397 83.9036H16.3954C13.9587 83.9036 13.9587 80.2005 16.3954 80.2005H47.6397C50.0773 80.2005 50.0773 83.9036 47.6397 83.9036Z" fill="#E5002B"/>
</svg>
