<svg width="30" height="30" viewBox="0 0 30 30" fill="none" xmlns="http://www.w3.org/2000/svg">
<mask id="mask0_625_10016" style="mask-type:luminance" maskUnits="userSpaceOnUse" x="0" y="0" width="30" height="30">
<path d="M0.78125 0.772249H29.2238V29.2148H0.78125V0.772249Z" fill="white"/>
</mask>
<g mask="url(#mask0_625_10016)">
<path d="M2.35199 8.38284C1.88786 8.07359 1.60938 7.55323 1.60938 6.99588V6.99449C1.60938 6.00916 2.40821 5.21038 3.39359 5.21038H26.6011C27.5865 5.21038 28.3853 6.00916 28.3853 6.99449V6.99538V6.99588C28.3853 7.55323 28.1069 8.07359 27.6427 8.38284C25.3779 9.89302 18.5536 14.4422 15.9876 16.1532C15.3879 16.5531 14.6069 16.5531 14.0071 16.1532C11.4411 14.4422 4.61679 9.89302 2.35199 8.38284Z" stroke="#E60027" stroke-width="1.5" stroke-miterlimit="10" stroke-linecap="round" stroke-linejoin="round"/>
<path d="M1.60938 6.98923V23.0548C1.60938 23.5283 1.79725 23.9821 2.1324 24.3168C2.4671 24.652 2.92096 24.8398 3.39443 24.8398H26.6003C27.0737 24.8398 27.5276 24.652 27.8623 24.3168C28.1974 23.9821 28.3853 23.5283 28.3853 23.0548V6.98923" stroke="#E60027" stroke-width="1.5" stroke-miterlimit="10" stroke-linecap="round" stroke-linejoin="round"/>
</g>
</svg>
