<svg width="246" height="48" viewBox="0 0 246 48" fill="none" xmlns="http://www.w3.org/2000/svg">
<path d="M6.8457 16.012H5.4217V18.86H6.8457V16.012ZM64.0793 18.86C64.8658 18.86 65.5033 18.2225 65.5033 17.436C65.5033 16.6496 64.8658 16.012 64.0793 16.012V18.86ZM6.8457 18.86H64.0793V16.012H6.8457V18.86Z" fill="url(#paint0_linear_625_7557)"/>
<path d="M2 26.4539H0.575997V29.3019H2V26.4539ZM59.2336 29.3019C60.0201 29.3019 60.6576 28.6644 60.6576 27.8779C60.6576 27.0915 60.0201 26.4539 59.2336 26.4539V29.3019ZM2 29.3019H59.2336V26.4539H2V29.3019Z" fill="url(#paint1_linear_625_7557)"/>
<path d="M92.6793 19.9278C92.0439 21.5004 91.073 22.9322 89.7667 24.2232C88.4698 25.4907 86.8975 26.5 85.0497 27.2511C83.2273 28.0022 81.2276 28.3778 79.0504 28.3778H75.7088L72.5081 36.2997H64.078L74.1494 11.3722H85.9211C89.2122 11.3722 91.4181 12.1467 92.539 13.6959C93.6852 15.2451 93.7319 17.3224 92.6793 19.9278ZM80.5905 22.2163C82.3373 22.2163 83.5189 21.4535 84.1353 19.9278C84.7517 18.4021 84.1865 17.6392 82.4397 17.6392H80.0474L78.1982 22.2163H80.5905Z" fill="#E5002B"/>
<path d="M101.74 36.5461C99.2082 36.5461 97.102 35.9945 95.4212 34.8913C93.7657 33.7881 92.7113 32.2624 92.258 30.3142C91.8046 28.366 92.0711 26.1714 93.0574 23.7303C94.0436 21.2892 95.5506 19.0945 97.5782 17.1463C99.6057 15.1981 101.888 13.6842 104.426 12.6044C106.998 11.5013 109.55 10.9497 112.081 10.9497C114.613 10.9497 116.706 11.5013 118.362 12.6044C120.027 13.6842 121.073 15.1981 121.501 17.1463C121.955 19.0945 121.688 21.2892 120.702 23.7303C119.716 26.1714 118.209 28.366 116.181 30.3142C114.179 32.2624 111.892 33.7881 109.319 34.8913C106.773 35.9945 104.246 36.5461 101.74 36.5461ZM104.684 29.258C106.355 29.258 107.845 28.7651 109.155 27.7792C110.474 26.7699 111.475 25.4203 112.158 23.7303C112.85 22.0168 112.94 20.6672 112.427 19.6813C111.923 18.672 110.836 18.1674 109.165 18.1674C107.469 18.1674 105.961 18.672 104.642 19.6813C103.333 20.6672 102.332 22.0168 101.639 23.7303C100.957 25.4203 100.867 26.7699 101.371 27.7792C101.884 28.7651 102.988 29.258 104.684 29.258Z" fill="#E5002B"/>
<path d="M141.828 23.519C143.306 23.8711 144.265 24.5988 144.705 25.7019C145.18 26.7817 145.129 28.0374 144.55 29.4692C143.668 31.6522 142.201 33.3422 140.147 34.5392C138.129 35.7128 135.664 36.2997 132.753 36.2997H118.665L128.736 11.3722H142.445C145.179 11.3722 147.108 11.9238 148.231 13.0269C149.355 14.1301 149.49 15.738 148.637 17.8505C148.049 19.3058 147.133 20.5381 145.89 21.5474C144.682 22.5332 143.328 23.1904 141.828 23.519ZM133.24 21.0897H136.506C137.265 21.0897 137.879 20.9488 138.347 20.6672C138.841 20.3855 139.206 19.9513 139.443 19.3644C139.69 18.7542 139.68 18.3082 139.414 18.0265C139.183 17.7214 138.688 17.5688 137.928 17.5688H134.663L133.24 21.0897ZM133.462 30.0326C134.222 30.0326 134.831 29.9035 135.29 29.6453C135.783 29.3636 136.153 28.9176 136.4 28.3074C136.883 27.1103 136.378 26.5117 134.885 26.5117H131.049L129.627 30.0326H133.462Z" fill="#E5002B"/>
<path d="M154.7 36.5461C152.549 36.5461 150.778 36.1353 149.388 35.3138C147.999 34.4923 147.119 33.3187 146.748 31.793C146.412 30.2438 146.661 28.4365 147.495 26.3709C148.33 24.3053 149.536 22.5097 151.115 20.984C152.728 19.4349 154.561 18.2495 156.615 17.428C158.668 16.6065 160.771 16.1957 162.923 16.1957C165.074 16.1957 166.845 16.6065 168.235 17.428C169.624 18.2495 170.487 19.4349 170.823 20.984C171.194 22.5097 170.962 24.3053 170.128 26.3709C169.293 28.4365 168.069 30.2438 166.456 31.793C164.878 33.3187 163.062 34.4923 161.008 35.3138C158.955 36.1353 156.852 36.5461 154.7 36.5461ZM157.432 29.7861C158.216 29.7861 158.988 29.5044 159.748 28.9411C160.516 28.3543 161.128 27.4976 161.584 26.3709C162.039 25.2442 162.114 24.3992 161.81 23.8359C161.516 23.2491 160.976 22.9557 160.191 22.9557C159.407 22.9557 158.63 23.2491 157.861 23.8359C157.102 24.3992 156.495 25.2442 156.039 26.3709C155.584 27.4976 155.491 28.3543 155.761 28.9411C156.065 29.5044 156.622 29.7861 157.432 29.7861Z" fill="#E5002B"/>
<path d="M182.815 36.2997L181.014 31.8282L176.511 36.2997H167.246L178.647 25.8428L174.889 16.4422H184.306L186.093 20.9488L190.648 16.4422H199.913L188.383 26.6526L192.232 36.2997H182.815Z" fill="#E5002B"/>
<path d="M222.032 17.428H211.02L209.825 20.3855C210.467 19.9865 211.215 19.6696 212.07 19.4349C212.949 19.2001 213.87 19.0828 214.832 19.0828C216.553 19.0828 217.857 19.4583 218.744 20.2094C219.63 20.9606 220.108 21.9699 220.178 23.2374C220.258 24.4814 219.99 25.8663 219.373 27.3919C218.235 30.2086 216.488 32.4033 214.131 33.9759C211.809 35.5251 209.154 36.2997 206.167 36.2997C203.99 36.2997 202.246 35.9476 200.936 35.2434C199.651 34.5392 198.842 33.5651 198.509 32.3211C198.202 31.0771 198.396 29.657 199.091 28.0609H207.293C207.142 28.4365 207.139 28.7885 207.284 29.1172C207.43 29.4458 207.819 29.6101 208.452 29.6101C209.085 29.6101 209.639 29.3988 210.113 28.9763C210.588 28.5538 210.972 27.9788 211.266 27.2511C211.541 26.5704 211.572 26.054 211.36 25.7019C211.173 25.3499 210.763 25.1738 210.131 25.1738C209.599 25.1738 209.146 25.2912 208.773 25.5259C208.4 25.7606 208.152 26.0306 208.028 26.3357H199.826L206.199 10.5624H224.806L222.032 17.428Z" fill="#E5002B"/>
<path d="M225.119 17.8857L228.077 10.5624H240.951L230.552 36.2997H221.704L229.144 17.8857H225.119Z" fill="#E5002B"/>
<defs>
<linearGradient id="paint0_linear_625_7557" x1="6.8457" y1="17.936" x2="64.0793" y2="17.936" gradientUnits="userSpaceOnUse">
<stop stop-color="white" stop-opacity="0"/>
<stop offset="1" stop-color="#E5002B"/>
</linearGradient>
<linearGradient id="paint1_linear_625_7557" x1="2" y1="28.3779" x2="59.2336" y2="28.3779" gradientUnits="userSpaceOnUse">
<stop stop-color="white" stop-opacity="0"/>
<stop offset="1" stop-color="#E5002B"/>
</linearGradient>
</defs>
</svg>
