<svg width="30" height="30" viewBox="0 0 30 30" fill="none" xmlns="http://www.w3.org/2000/svg">
<mask id="mask0_625_10029" style="mask-type:luminance" maskUnits="userSpaceOnUse" x="0" y="0" width="30" height="30">
<path d="M0.976562 0.838165H29.3025V29.1641H0.976562V0.838165Z" fill="white"/>
</mask>
<g mask="url(#mask0_625_10029)">
<path d="M17.3555 6.37095C17.3555 8.81533 19.337 10.7969 21.7814 10.7969C24.2258 10.7969 26.2073 8.81533 26.2073 6.37095C26.2073 3.92657 24.2258 1.94503 21.7814 1.94503C19.337 1.94503 17.3555 3.92657 17.3555 6.37095Z" stroke="#E60027" stroke-width="1.5" stroke-miterlimit="10"/>
<path d="M4.07812 15.0038C4.07812 17.4481 6.05967 19.4297 8.50405 19.4297C10.9484 19.4297 12.93 17.4481 12.93 15.0038C12.93 12.5594 10.9484 10.5778 8.50405 10.5778C6.05967 10.5778 4.07812 12.5594 4.07812 15.0038Z" stroke="#E60027" stroke-width="1.5" stroke-miterlimit="10"/>
<path d="M17.3555 23.6288C17.3555 26.0731 19.337 28.0547 21.7814 28.0547C24.2258 28.0547 26.2073 26.0731 26.2073 23.6288C26.2073 21.1844 24.2258 19.2028 21.7814 19.2028C19.337 19.2028 17.3555 21.1844 17.3555 23.6288Z" stroke="#E60027" stroke-width="1.5" stroke-miterlimit="10"/>
<path d="M18.0993 8.82304L12.1875 12.543" stroke="#E60027" stroke-width="1.5" stroke-miterlimit="10"/>
<path d="M12.1875 17.4558L18.0993 21.1758" stroke="#E60027" stroke-width="1.5" stroke-miterlimit="10"/>
</g>
</svg>
