<svg width="57" height="56" viewBox="0 0 57 56" fill="none" xmlns="http://www.w3.org/2000/svg">
<g filter="url(#filter0_d_140_3098)">
<path d="M45.5 28.4805C45.5495 28.4804 45.5991 28.4825 45.6484 28.4873C45.6645 28.4889 45.6804 28.492 45.6963 28.4941C45.7283 28.4983 45.7603 28.5026 45.792 28.5088C45.8141 28.5132 45.8357 28.5191 45.8574 28.5244C45.8846 28.531 45.9117 28.5378 45.9385 28.5459C45.95 28.5494 45.9612 28.5538 45.9727 28.5576C46.1875 28.6286 46.3904 28.7482 46.5615 28.9189C47.1475 29.5041 47.1484 30.4538 46.5635 31.04L36.543 41.0801C35.9578 41.6663 35.0082 41.6672 34.4219 41.082C33.8356 40.4968 33.8347 39.5473 34.4199 38.9609L38.8848 31.4805H11.499C10.6706 31.4805 9.99902 30.8089 9.99902 29.9805C9.99902 29.152 10.6706 28.4805 11.499 28.4805H45.5Z" fill="#111827"/>
<path d="M20.4569 6.92103C21.0421 6.33466 21.9926 6.33387 22.579 6.91908C23.165 7.50429 23.166 8.45391 22.581 9.04017L18.1142 16.5216H45.4989C46.3274 16.5216 46.9989 17.1932 46.9989 18.0216C46.9989 18.85 46.3273 19.5216 45.4989 19.5216H11.4989C11.2593 19.5216 11.0338 19.4633 10.8329 19.3634C10.8203 19.3571 10.8073 19.3515 10.7948 19.3449C10.532 19.2047 10.316 18.9894 10.1757 18.7267C10.1672 18.7107 10.1602 18.6941 10.1522 18.6779C10.1383 18.6494 10.1233 18.6214 10.1112 18.5919C10.106 18.5792 10.1024 18.5657 10.0976 18.5529C10.0517 18.4321 10.019 18.3044 10.0058 18.171C9.99105 18.0243 9.9988 17.8757 10.0272 17.7306C10.0328 17.7023 10.0396 17.6743 10.0468 17.6466C10.0512 17.6293 10.0554 17.612 10.0604 17.5949L10.0663 17.5753C10.0709 17.5605 10.0769 17.5461 10.0819 17.5314C10.1536 17.3232 10.2714 17.1274 10.4374 16.9611L20.4569 6.92103Z" fill="#111827"/>
</g>
<defs>
<filter id="filter0_d_140_3098" x="-5.5" y="-6" width="68" height="68" filterUnits="userSpaceOnUse" color-interpolation-filters="sRGB">
<feFlood flood-opacity="0" result="BackgroundImageFix"/>
<feColorMatrix in="SourceAlpha" type="matrix" values="0 0 0 0 0 0 0 0 0 0 0 0 0 0 0 0 0 0 127 0" result="hardAlpha"/>
<feOffset dy="4"/>
<feGaussianBlur stdDeviation="5"/>
<feColorMatrix type="matrix" values="0 0 0 0 0 0 0 0 0 0 0 0 0 0 0 0 0 0 0.24 0"/>
<feBlend mode="normal" in2="BackgroundImageFix" result="effect1_dropShadow_140_3098"/>
<feBlend mode="normal" in="SourceGraphic" in2="effect1_dropShadow_140_3098" result="shape"/>
</filter>
</defs>
</svg>
