<svg width="815" height="528" viewBox="0 0 815 528" fill="none" xmlns="http://www.w3.org/2000/svg">
<circle cx="278.756" cy="66.9749" r="31.4249" stroke="#FFA4A4" stroke-width="1.7"/>
<rect x="425.964" y="74.5179" width="174.759" height="122.534" rx="17.0992" stroke="#FFA4A4" stroke-width="1.7"/>
<mask id="mask0_625_7594" style="mask-type:luminance" maskUnits="userSpaceOnUse" x="105" y="215" width="54" height="54">
<path d="M158.088 215.052H105.53V268.621H158.088V215.052Z" fill="white"/>
</mask>
<g mask="url(#mask0_625_7594)">
<mask id="mask1_625_7594" style="mask-type:luminance" maskUnits="userSpaceOnUse" x="105" y="215" width="54" height="54">
<path d="M105.523 215.046H158.081V268.614H105.523V215.046Z" fill="white"/>
</mask>
<g mask="url(#mask1_625_7594)">
<path d="M108.044 254.171C106.756 255.484 106.756 257.613 108.044 258.926L115.041 266.057C116.329 267.37 118.418 267.37 119.706 266.057C120.994 264.744 120.994 262.616 119.706 261.303L112.709 254.171C111.42 252.858 109.332 252.858 108.044 254.171Z" stroke="#FFA4A4" stroke-width="1.7" stroke-miterlimit="10" stroke-linecap="round" stroke-linejoin="round"/>
<path d="M125.526 224.453C124.237 225.766 124.238 227.895 125.526 229.208L144.185 248.226C145.473 249.539 147.562 249.539 148.85 248.226C150.138 246.913 150.138 244.784 148.85 243.472L130.191 224.453C128.902 223.14 126.814 223.14 125.526 224.453Z" stroke="#FFA4A4" stroke-width="1.7" stroke-miterlimit="10" stroke-linecap="round" stroke-linejoin="round"/>
<path d="M144.191 248.226L119.701 261.301L112.703 254.17L125.532 229.208L144.191 248.226Z" stroke="#FFA4A4" stroke-width="1.7" stroke-miterlimit="10" stroke-linecap="round" stroke-linejoin="round"/>
<path d="M139.004 251.01C140.217 254.048 139.615 257.662 137.197 260.126C133.976 263.408 128.755 263.408 125.535 260.126C125.132 259.716 124.78 259.274 124.478 258.807" stroke="#FFA4A4" stroke-width="1.7" stroke-miterlimit="10" stroke-linecap="round" stroke-linejoin="round"/>
<path d="M156.556 216.606L148.278 225.043" stroke="#FFA4A4" stroke-width="1.7" stroke-miterlimit="10" stroke-linecap="round" stroke-linejoin="round"/>
<path d="M143.037 216.618L139.524 222.083" stroke="#FFA4A4" stroke-width="1.7" stroke-miterlimit="10" stroke-linecap="round" stroke-linejoin="round"/>
<path d="M156.55 230.384L151.188 233.964" stroke="#FFA4A4" stroke-width="1.7" stroke-miterlimit="10" stroke-linecap="round" stroke-linejoin="round"/>
</g>
</g>
<path d="M90.7373 194.088H131.244C157.611 194.088 178.986 215.463 178.986 241.831V241.831C178.986 268.198 157.611 289.573 131.244 289.573H90.7373" stroke="#FFA4A4" stroke-width="1.7"/>
<path d="M713.868 177.665H618.264C616.366 177.665 614.826 179.205 614.826 181.103V207.074C614.826 208.973 616.366 210.512 618.264 210.512H713.868C715.768 210.512 717.306 208.973 717.306 207.074V181.103C717.306 179.205 715.768 177.665 713.868 177.665Z" stroke="#FFA4A4" stroke-width="1.7" stroke-linecap="round" stroke-linejoin="round"/>
<path d="M220.42 290H202.751C202.4 290 202.116 290.866 202.116 291.934V306.539C202.116 307.607 202.4 308.473 202.751 308.473H220.42C220.771 308.473 221.055 307.607 221.055 306.539V291.934C221.055 290.866 220.771 290 220.42 290Z" stroke="#FFA4A4" stroke-width="1.7" stroke-linecap="round" stroke-linejoin="round"/>
<path d="M614.826 139.844H664.846" stroke="#FFA4A4" stroke-width="1.7" stroke-linecap="round" stroke-linejoin="round"/>
<path d="M614.826 152.405H714.881" stroke="#FFA4A4" stroke-width="1.7" stroke-linecap="round" stroke-linejoin="round"/>
<path d="M161 318.769H221.055" stroke="#FFA4A4" stroke-width="1.7" stroke-linecap="round" stroke-linejoin="round"/>
<path d="M614.826 164.101H714.881" stroke="#FFA4A4" stroke-width="1.7" stroke-linecap="round" stroke-linejoin="round"/>
<path d="M121 333.465H221.055" stroke="#FFA4A4" stroke-width="1.7" stroke-linecap="round" stroke-linejoin="round"/>
<circle cx="191.334" cy="463.853" r="20.8738" stroke="#FFA4A4" stroke-width="1.7"/>
<path d="M511.898 123.212C511.898 128.643 516.301 133.045 521.732 133.045C527.163 133.045 531.566 128.643 531.566 123.212C531.566 117.781 527.163 113.378 521.732 113.378C516.301 113.378 511.898 117.781 511.898 123.212Z" stroke="#FFA4A4" stroke-width="1.7" stroke-miterlimit="10"/>
<path d="M729 123C729 125.761 731.238 128 734 128C736.761 128 739 125.761 739 123C739 120.238 736.761 118 734 118C731.238 118 729 120.238 729 123Z" stroke="#FFA4A4" stroke-width="1.7" stroke-miterlimit="10"/>
<path d="M482.399 142.392C482.399 147.823 486.802 152.226 492.232 152.226C497.663 152.226 502.066 147.823 502.066 142.392C502.066 136.961 497.663 132.559 492.232 132.559C486.802 132.559 482.399 136.961 482.399 142.392Z" stroke="#FFA4A4" stroke-width="1.7" stroke-miterlimit="10"/>
<path d="M511.898 161.555C511.898 166.986 516.301 171.389 521.732 171.389C527.163 171.389 531.566 166.986 531.566 161.555C531.566 156.124 527.163 151.721 521.732 151.721C516.301 151.721 511.898 156.124 511.898 161.555Z" stroke="#FFA4A4" stroke-width="1.7" stroke-miterlimit="10"/>
<path d="M513.551 128.66L500.416 136.925" stroke="#FFA4A4" stroke-width="1.7" stroke-miterlimit="10"/>
<path d="M500.416 147.84L513.551 156.105" stroke="#FFA4A4" stroke-width="1.7" stroke-miterlimit="10"/>
<path d="M52.7009 258.694H0.941406V286.853H52.7009V258.694Z" stroke="#FFA4A4" stroke-width="1.7" stroke-miterlimit="10"/>
<path d="M90.0897 230.917H26.8135V259.508" stroke="#FFA4A4" stroke-width="1.7" stroke-miterlimit="10"/>
<path d="M90.5698 150.976V401.309" stroke="#FFA4A4" stroke-width="1.7"/>
<mask id="path-30-inside-1_625_7594" fill="white">
<path fill-rule="evenodd" clip-rule="evenodd" d="M130.602 140.061H25.7362C23.5817 140.061 21.8353 137.864 21.834 135.153V95.3383C21.834 92.6287 23.5817 90.4307 25.7362 90.4307H155.402C157.556 90.4307 159.304 92.6287 159.304 95.3383V135.153C159.304 137.864 157.556 140.061 155.402 140.061H144.33V150.976L130.602 140.061Z"/>
</mask>
<path d="M130.602 140.061L131.868 138.469L131.312 138.027H130.602V140.061ZM21.834 135.153H19.8005L19.8005 135.154L21.834 135.153ZM144.33 140.061V138.027H142.296V140.061H144.33ZM144.33 150.976L143.064 152.568L146.363 155.191V150.976H144.33ZM25.7362 142.094H130.602V138.027H25.7362V142.094ZM19.8005 135.154C19.8021 138.527 22.0482 142.094 25.7362 142.094V138.027C25.1151 138.027 23.8685 137.201 23.8675 135.152L19.8005 135.154ZM19.8005 95.3383V135.153H23.8675V95.3383H19.8005ZM25.7362 88.3972C22.0485 88.3972 19.8005 91.9651 19.8005 95.3383H23.8675C23.8675 93.2922 25.1148 92.4642 25.7362 92.4642V88.3972ZM155.402 88.3972H25.7362V92.4642H155.402V88.3972ZM161.338 95.3383C161.338 91.9651 159.089 88.3972 155.402 88.3972V92.4642C156.023 92.4642 157.271 93.2923 157.271 95.3383H161.338ZM161.338 135.153V95.3383H157.271V135.153H161.338ZM155.402 142.094C159.089 142.094 161.338 138.528 161.338 135.153H157.271C157.271 137.2 156.024 138.027 155.402 138.027V142.094ZM144.33 142.094H155.402V138.027H144.33V142.094ZM142.296 140.061V150.976H146.363V140.061H142.296ZM145.595 149.384L131.868 138.469L129.337 141.652L143.064 152.568L145.595 149.384Z" fill="#FFA4A4" mask="url(#path-30-inside-1_625_7594)"/>
<mask id="mask2_625_7594" style="mask-type:luminance" maskUnits="userSpaceOnUse" x="46" y="409" width="102" height="106">
<path d="M147.803 409.032H46.2559V514.403H147.803V409.032Z" fill="white"/>
<path d="M72.2263 461.928C72.2263 464.201 70.4504 466.044 68.2596 466.044C66.0688 466.044 64.293 464.201 64.293 461.928C64.293 459.655 66.0688 457.812 68.2596 457.812C70.4504 457.812 72.2263 459.655 72.2263 461.928Z" fill="white"/>
<path d="M72.2263 490.748C72.2263 493.021 70.4504 494.864 68.2596 494.864C66.0688 494.864 64.293 493.021 64.293 490.748C64.293 488.475 66.0688 486.632 68.2596 486.632C70.4504 486.632 72.2263 488.475 72.2263 490.748Z" fill="white"/>
<path d="M72.2263 433.135C72.2263 435.409 70.4504 437.252 68.2596 437.252C66.0688 437.252 64.293 435.409 64.293 433.135C64.293 430.862 66.0688 429.019 68.2596 429.019C70.4504 429.019 72.2263 430.862 72.2263 433.135Z" fill="white"/>
</mask>
<g mask="url(#mask2_625_7594)">
<mask id="mask3_625_7594" style="mask-type:luminance" maskUnits="userSpaceOnUse" x="46" y="409" width="102" height="106">
<path d="M46.2559 409.031H147.803V514.403H46.2559V409.031Z" fill="white"/>
</mask>
<g mask="url(#mask3_625_7594)">
<path d="M70.261 510.285H131.943C136.324 510.285 139.876 506.6 139.876 502.053V421.378C139.876 416.831 136.324 413.146 131.943 413.146H70.261C65.8794 413.146 62.3276 416.831 62.3276 421.378V502.053C62.3276 506.6 65.8794 510.285 70.261 510.285Z" stroke="#FFA4A4" stroke-width="1.7" stroke-miterlimit="10"/>
<path d="M52.2681 433.106H69.9198" stroke="#FFA4A4" stroke-width="1.7" stroke-miterlimit="10" stroke-linecap="round"/>
<path d="M52.2681 461.94H69.9198" stroke="#FFA4A4" stroke-width="1.7" stroke-miterlimit="10" stroke-linecap="round"/>
<path d="M52.2681 490.746H69.9198" stroke="#FFA4A4" stroke-width="1.7" stroke-miterlimit="10" stroke-linecap="round"/>
<path d="M92.4565 451.444C92.4565 445.647 96.9853 440.948 102.572 440.948C108.158 440.948 112.687 445.647 112.687 451.444C112.687 457.241 108.158 461.94 102.572 461.94C96.9853 461.94 92.4565 457.241 92.4565 451.444Z" stroke="#FFA4A4" stroke-width="1.7" stroke-miterlimit="10" stroke-linecap="round" stroke-linejoin="round"/>
<path d="M82.7451 482.903C82.7451 471.423 91.7138 462.116 102.777 462.116C113.84 462.116 122.809 471.423 122.809 482.903" stroke="#FFA4A4" stroke-width="1.7" stroke-miterlimit="10" stroke-linecap="round" stroke-linejoin="round"/>
</g>
</g>
<path d="M77.0566 401.448H143.656C147.428 401.448 150.486 404.505 150.486 408.277V495.874" stroke="#FFA4A4" stroke-width="1.7"/>
<g clip-path="url(#clip0_625_7594)">
<mask id="mask4_625_7594" style="mask-type:luminance" maskUnits="userSpaceOnUse" x="513" y="471" width="61" height="50">
<path d="M524.472 471.915H573.934L562.807 520.109H513.346L524.472 471.915Z" fill="white"/>
</mask>
<g mask="url(#mask4_625_7594)">
<path d="M524.227 484.81C523.541 484.286 523.26 483.404 523.478 482.46L523.478 482.457C523.864 480.788 525.566 479.434 527.279 479.434H567.637C569.351 479.434 570.427 480.788 570.042 482.457L570.042 482.459L570.041 482.46C569.823 483.404 569.136 484.286 568.207 484.81C563.678 487.369 550.031 495.077 544.899 497.976C543.7 498.654 542.342 498.654 541.455 497.976C537.662 495.077 527.574 487.369 524.227 484.81Z" stroke="#FFA4A4" stroke-width="1.7" stroke-miterlimit="10" stroke-linecap="round" stroke-linejoin="round"/>
<path d="M523.481 482.448L517.196 509.671C517.011 510.473 517.16 511.242 517.612 511.809C518.063 512.377 518.778 512.695 519.602 512.695H559.957C560.78 512.695 561.643 512.377 562.356 511.809C563.07 511.242 563.574 510.473 563.759 509.671L570.044 482.448" stroke="#FFA4A4" stroke-width="1.7" stroke-miterlimit="10" stroke-linecap="round" stroke-linejoin="round"/>
</g>
</g>
<path d="M493.414 486.755H515.933" stroke="#FFA4A4" stroke-width="1.7"/>
<path d="M489.344 496.021H511.863" stroke="#FFA4A4" stroke-width="1.7"/>
<path d="M485.047 505.789H507.566" stroke="#FFA4A4" stroke-width="1.7"/>
<path d="M767.463 372.759L753.372 423.63C752.661 426.197 750.006 427.704 747.442 426.997L722.424 420.096C719.86 419.388 718.357 416.734 719.068 414.167L733.159 363.296C733.87 360.73 736.524 359.222 739.089 359.93L764.106 366.831C766.671 367.538 768.173 370.192 767.463 372.759Z" stroke="#FFA4A4" stroke-width="1.7" stroke-linecap="round" stroke-linejoin="round"/>
<path d="M732.191 366.756L766.493 376.213" stroke="#FFA4A4" stroke-width="1.7" stroke-linecap="round" stroke-linejoin="round"/>
<path d="M720.042 410.64L754.337 420.105" stroke="#FFA4A4" stroke-width="1.7" stroke-linecap="round" stroke-linejoin="round"/>
<path d="M738.972 420.265L733.145 418.661" stroke="#FFA4A4" stroke-width="1.7" stroke-linecap="round" stroke-linejoin="round"/>
<path d="M780.45 341.47H707.721H706.432C702.66 341.47 699.602 344.527 699.602 348.299V436.291C699.602 439.435 702.15 441.983 705.293 441.983H711.454L722.105 452.633L730.925 441.983H779.311C783.712 441.983 787.279 438.415 787.279 434.015V348.299C787.279 344.527 784.221 341.47 780.45 341.47Z" stroke="#FFA4A4" stroke-width="1.7"/>
<path d="M678.896 615.475C722.086 615.475 757.099 580.406 757.099 537.145C757.099 493.885 722.086 458.816 678.896 458.816C635.706 458.816 600.693 493.885 600.693 537.145C600.693 580.406 635.706 615.475 678.896 615.475Z" stroke="#FFA4A4" stroke-width="1.7" stroke-miterlimit="10"/>
<path d="M278.756 207.304C335.633 207.304 381.742 161.122 381.742 104.152C381.742 47.1828 335.633 0.999939 278.756 0.999939C221.878 0.999939 175.771 47.1828 175.771 104.152C175.771 161.122 221.878 207.304 278.756 207.304Z" stroke="#FFA4A4" stroke-width="1.7" stroke-miterlimit="10"/>
<path d="M272.091 207.42C285.023 265.552 382.217 321.479 478.388 334.942C624.334 355.373 655.179 405.384 676.476 458.303" stroke="#FFA4A4" stroke-width="1.7"/>
<path d="M600.693 123.211H729.012" stroke="#FFA4A4" stroke-width="1.7"/>
<path d="M140.292 496.021L445.644 496.021" stroke="#FFA4A4" stroke-width="1.7"/>
<path d="M600.352 542L155 542L117.5 542C103.417 542 92 530.583 92 516.5V516.5" stroke="#FFA4A4" stroke-width="1.7" stroke-linecap="round"/>
<path d="M35.0552 107.955H121.051" stroke="#FFA4A4" stroke-width="1.7"/>
<path d="M35.0552 120.364H94.1084" stroke="#FFA4A4" stroke-width="1.7"/>
<path d="M382.711 98.7366H743.394C782.327 98.7366 813.889 130.298 813.889 169.232V485.261C813.889 516.662 788.434 542.117 757.033 542.117V542.117" stroke="#FFA4A4" stroke-width="1.7"/>
<path d="M443.182 88.505H450.212" stroke="#FFA4A4" stroke-width="1.7"/>
<path d="M455.217 88.505H462.247" stroke="#FFA4A4" stroke-width="1.7"/>
<path d="M467.253 88.505H474.284" stroke="#FFA4A4" stroke-width="1.7"/>
<path d="M276.007 481.739L276.007 481.739L268.494 479.81L268.365 479.279C273.428 478.284 276.069 476.717 276.256 476.605L276.256 476.605C276.813 476.27 277.13 475.683 277.172 475.082L277.173 475.077C277.214 474.449 276.944 473.839 276.464 473.446L276.464 473.446L276.456 473.439C276.461 473.443 276.464 473.445 276.464 473.445C276.467 473.441 273.003 470.414 273.003 459.928C273.003 455.26 272.475 451.627 271.354 449.131C270.788 447.874 270.056 446.866 269.127 446.172C268.188 445.471 267.094 445.125 265.883 445.125H265.612C264.92 444.465 264.227 443.926 263.336 443.558C262.344 443.148 261.181 442.979 259.613 442.979C255.256 442.979 246.223 447.376 246.223 459.928C246.223 470.087 242.971 473.243 242.783 473.426C242.775 473.433 242.773 473.436 242.776 473.434C242.285 473.821 242.015 474.424 242.044 475.046L242.044 475.051C242.077 475.68 242.409 476.26 242.952 476.595L242.953 476.595C243.146 476.714 245.767 478.29 250.857 479.284L250.729 479.809L243.216 481.739L243.216 481.739C237.589 483.185 233.683 488.347 233.683 494.271C233.683 495.312 234.51 496.195 235.578 496.195H283.648C284.72 496.195 285.543 495.303 285.543 494.267C285.543 488.347 281.636 483.185 276.007 481.739Z" stroke="#FFA4A4" stroke-width="1.7"/>
<path d="M335.411 481.738L335.205 482.562L335.411 481.738L327.683 479.805L327.222 477.961C329.25 475.812 330.665 473.006 331.194 470.096C332.471 469.536 333.423 468.337 333.606 466.872C333.606 466.872 333.606 466.872 333.606 466.872C333.606 466.871 333.606 466.871 333.606 466.871L334.142 462.579C334.286 461.434 333.934 460.275 333.173 459.405C332.87 459.057 332.513 458.768 332.121 458.545L332.275 455.395L332.847 454.822L332.856 454.813L332.864 454.804C333.551 454.073 334.216 453.042 334.385 451.701C334.555 450.349 334.206 448.799 333.072 447.068L333.072 447.068C331.26 444.302 328.21 442.979 324.23 442.979L324.211 442.979C322.724 442.979 319.187 442.979 315.831 445.136C311.295 445.268 308.491 446.399 306.841 448.218C305.168 450.063 304.856 452.432 304.856 454.561C304.856 455.433 305.031 457.174 305.177 458.469C304.741 458.697 304.346 459.005 304.014 459.383C303.241 460.259 302.883 461.423 303.027 462.58L303.027 462.581L303.564 466.874L303.564 466.875C303.76 468.436 304.828 469.701 306.242 470.205C306.768 472.982 308.104 475.671 310 477.763L309.489 479.809L301.761 481.742C295.998 483.178 291.977 488.331 291.977 494.271C291.977 495.333 292.838 496.195 293.9 496.195H343.269C344.336 496.195 345.193 495.325 345.193 494.267C345.193 488.331 341.171 483.178 335.411 481.738Z" stroke="#FFA4A4" stroke-width="1.7"/>
<path d="M52.1187 79.7872H178.075" stroke="#FFA4A4" stroke-width="1.7"/>
<path d="M179.416 465.757L186.812 472.623L201.846 455.963" stroke="#FFA4A4" stroke-width="1.7" stroke-linecap="round"/>
<path d="M574.523 276H511.027L500 319.719H512.349L518.142 327.491L525.6 319.719H563.073L574.523 276Z" stroke="#FFA4A4" stroke-width="1.7"/>
<path d="M570.855 292.406H613.958L623.295 333.524H608.397L601.445 342.065L594.492 333.524H556.95L552.58 319.619" stroke="#FFA4A4" stroke-width="1.7"/>
<path d="M372.904 240.602C374.78 240.968 376.504 241.885 377.856 243.237C379.207 244.588 380.125 246.312 380.491 248.188M372.904 232.92C376.802 233.353 380.436 235.098 383.211 237.869C385.985 240.64 387.735 244.272 388.173 248.169M386.252 263.495V269.257C386.254 269.791 386.145 270.321 385.931 270.811C385.716 271.301 385.402 271.741 385.008 272.103C384.614 272.464 384.148 272.739 383.642 272.911C383.135 273.082 382.598 273.146 382.065 273.098C376.156 272.456 370.479 270.436 365.491 267.202C360.851 264.253 356.917 260.319 353.968 255.678C350.722 250.668 348.702 244.964 348.072 239.027C348.024 238.496 348.087 237.961 348.257 237.455C348.427 236.95 348.701 236.486 349.06 236.092C349.42 235.698 349.857 235.383 350.345 235.168C350.833 234.952 351.36 234.841 351.894 234.84H357.655C358.587 234.831 359.491 235.161 360.198 235.769C360.904 236.377 361.366 237.221 361.496 238.144C361.74 239.988 362.191 241.798 362.841 243.54C363.099 244.228 363.155 244.975 363.002 245.693C362.849 246.411 362.493 247.071 361.977 247.593L359.537 250.032C362.271 254.84 366.253 258.821 371.061 261.555L373.5 259.116C374.022 258.6 374.681 258.244 375.399 258.091C376.118 257.938 376.865 257.993 377.552 258.252C379.295 258.902 381.105 259.353 382.949 259.596C383.882 259.728 384.734 260.198 385.343 260.917C385.952 261.635 386.276 262.553 386.252 263.495Z" stroke="#FFA4A4" stroke-width="1.7" stroke-linecap="round" stroke-linejoin="round"/>
<path d="M194.012 163.002C204.871 143.714 231.745 103.096 252.361 94.927C256.413 99.9515 265.5 108 283.868 106.579C300.238 110.469 330.744 129.645 346.693 180.992" stroke="#FFA4A4" stroke-width="1.7"/>
<path d="M246.481 147.839L252.802 204.244" stroke="#FFA4A4" stroke-width="1.7"/>
<path d="M283.211 48.4429C277.179 57.6754 257.184 60.8973 248.157 61.3078C249.149 52.6318 256.475 39.3643 272.636 36.1018C278.678 34.7676 293.161 35.0603 302.754 46.9043C293.644 53.4287 285.93 50.6485 283.211 48.4429Z" stroke="#FFA4A4" stroke-width="1.7"/>
<path d="M288.67 89.6803C291.363 91.5946 294.871 91.4446 299.07 90.5856" stroke="#FFA4A4" stroke-width="1.7" stroke-linecap="round"/>
<path d="M254.929 42.3796C261.553 42.3796 266.919 37.0036 266.919 30.3567C266.919 23.7098 261.553 18.3338 254.929 18.3338C248.305 18.3338 242.938 23.7098 242.938 30.3567C242.938 37.0036 248.305 42.3796 254.929 42.3796Z" stroke="#FFA4A4" stroke-width="1.7" stroke-miterlimit="10"/>
<path d="M508.312 353.599C536.017 357.285 598.205 372.719 625.315 404.966" stroke="#FFA4A4" stroke-width="1.7" stroke-linecap="round"/>
<path d="M640.752 506.274L640.752 506.274C640.951 508.933 640.894 511.578 640.804 514.224C640.791 514.606 640.777 514.989 640.763 515.372C640.682 517.634 640.601 519.899 640.66 522.171C640.703 523.795 640.929 525.385 641.155 526.97C641.177 527.128 641.2 527.286 641.222 527.444C641.468 529.188 641.691 530.93 641.648 532.714C641.427 541.851 644.839 548.784 650.563 555.891C650.738 556.108 650.915 556.328 651.093 556.55C653.115 559.071 655.328 561.828 657.9 563.817C660.702 565.983 663.935 567.241 667.821 566.291C675.31 564.459 684.079 558.411 689.039 552.528C689.307 552.21 689.21 551.821 688.985 551.595C688.872 551.481 688.724 551.405 688.568 551.398C688.409 551.391 688.249 551.456 688.115 551.615L688.153 551.647L688.115 551.615C683.357 557.257 675.009 562.974 667.864 564.927C663.405 566.146 659.295 563.861 655.792 560.463C652.291 557.066 649.408 552.568 647.405 549.392C645.016 545.602 643.214 541.381 642.901 536.878L642.851 536.881L642.901 536.878C642.823 535.753 642.877 534.63 642.933 533.504L642.936 533.449C642.992 532.343 643.047 531.233 642.978 530.122C642.885 528.648 642.72 527.216 642.556 525.793C642.491 525.234 642.427 524.676 642.367 524.118C642.156 522.138 642.002 520.151 642.106 518.065C642.3 514.137 642.346 510.192 642.052 506.265L642.052 506.265C642.02 505.851 641.677 505.645 641.358 505.644C641.198 505.644 641.039 505.695 640.923 505.801C640.805 505.908 640.736 506.067 640.752 506.274Z" fill="#FFA4A4" stroke="#FFA4A4" stroke-width="0.1"/>
<path d="M700.473 516.402C700.476 516.412 700.48 516.423 700.486 516.434C700.236 516.576 699.912 516.666 699.54 516.73C699.135 516.799 698.678 516.835 698.209 516.871L698.183 516.873C697.706 516.911 697.216 516.95 696.759 517.027C696.302 517.105 695.875 517.22 695.523 517.413L695.547 517.457L695.523 517.413C693.173 518.7 692.081 520.882 691.626 523.438C691.271 525.429 691.233 527.398 691.249 529.362C691.252 529.773 691.258 530.183 691.263 530.594C691.285 532.146 691.306 533.697 691.199 535.259C691.191 535.382 691.184 535.485 691.179 535.571C691.122 535.569 691.063 535.567 691.004 535.563C690.877 535.557 690.75 535.548 690.633 535.539C690.611 535.537 690.59 535.536 690.57 535.534C690.438 535.525 690.324 535.517 690.253 535.518C689.779 535.523 689.477 535.587 689.291 535.662C689.282 535.666 689.273 535.67 689.264 535.673C689.283 535.567 689.292 535.428 689.281 535.248C689.145 532.972 689.314 530.625 689.484 528.262C689.539 527.491 689.595 526.719 689.64 525.946C689.824 522.808 689.835 519.675 688.961 516.689C688.69 515.765 688.38 515.163 687.915 514.702C687.452 514.242 686.838 513.926 685.971 513.565C683.469 512.523 681.613 511.744 680.215 510.473C678.819 509.204 677.874 507.441 677.208 504.42C677.164 504.217 677.051 504.083 676.908 504.012C676.803 503.96 676.685 503.942 676.568 503.954C676.519 503.952 676.468 503.955 676.415 503.964C675.964 504.04 675.509 504.118 675.051 504.196C664.685 505.966 652.553 508.037 642.354 505.635C637.865 504.578 634.577 500.729 634.206 496.01C634.029 493.766 634.483 492.179 635.348 491.076C636.213 489.973 637.495 489.346 638.987 489.033C641.974 488.406 645.784 489.039 648.717 489.599C652.282 490.279 655.764 490.937 659.396 490.32L659.388 490.271L659.396 490.32C661.237 490.008 663.054 489.572 664.87 489.13C664.967 489.106 665.064 489.082 665.161 489.059C666.88 488.64 668.597 488.222 670.333 487.902C675.531 486.946 681.407 486.543 686.62 487.761C691.832 488.978 696.378 491.813 698.925 497.331C700.631 501.029 701.167 505.199 701.115 509.244C701.097 510.677 701.003 512.114 700.83 513.537L700.879 513.543L700.83 513.537C700.803 513.754 700.75 514.079 700.691 514.435C700.642 514.732 700.589 515.051 700.546 515.346C700.498 515.668 700.463 515.962 700.456 516.164C700.453 516.264 700.457 516.348 700.473 516.402ZM650.07 507.654C658.742 507.777 667.532 506.759 676.085 505.328C676.834 508.458 678.073 511.403 680.982 513.138L681.007 513.095L680.982 513.138C681.638 513.529 682.327 513.788 683.007 514.007C683.249 514.085 683.49 514.158 683.727 514.23C684.157 514.36 684.576 514.487 684.977 514.636C685.597 514.867 686.165 515.149 686.643 515.572C687.121 515.994 687.512 516.558 687.774 517.358C688.671 520.092 688.805 523.367 688.666 526.674C688.582 528.672 688.399 530.678 688.225 532.582C688.111 533.83 688.002 535.034 687.926 536.163L687.926 536.164C687.914 536.343 687.996 536.507 688.118 536.624C688.241 536.741 688.408 536.816 688.576 536.816H688.582H688.589H688.595H688.602H688.609H688.615H688.622H688.628H688.635H688.641H688.648H688.655H688.661H688.668H688.674H688.681H688.687H688.694H688.7H688.707H688.714H688.72H688.727H688.733H688.74H688.746H688.753H688.759H688.766H688.773H688.779H688.786H688.792H688.799H688.805H688.812H688.819H688.825H688.832H688.838H688.845H688.851H688.858H688.864H688.871H688.878H688.884H688.891H688.897H688.904H688.91H688.917H688.923H688.93H688.937H688.943H688.95H688.956H688.963H688.969H688.976H688.983H688.989H688.996H689.002H689.009H689.015H689.022H689.028H689.035H689.042H689.048H689.055H689.061H689.068H689.074H689.081H689.087H689.094H689.101H689.107H689.114H689.12H689.127H689.133H689.14H689.147H689.153H689.16H689.166H689.173H689.179H689.186H689.192H689.199H689.206H689.212H689.219H689.225H689.232H689.238H689.245H689.251H689.258H689.265H689.271H689.278H689.284H689.291H689.297H689.304H689.31H689.317H689.324H689.33H689.337H689.343H689.35H689.356H689.363H689.37H689.376H689.383H689.389H689.396H689.402H689.409H689.415H689.422H689.429H689.435H689.442H689.448H689.455H689.461H689.468H689.474H689.481H689.488H689.494H689.501H689.507H689.514H689.52H689.527H689.533H689.54H689.547H689.553H689.56H689.566H689.573H689.579H689.586H689.593H689.599H689.606H689.612H689.619H689.625H689.632H689.638H689.645H689.652H689.658H689.665H689.671H689.678H689.684H689.691H689.697H689.704H689.711H689.717H689.724H689.73H689.737H689.743H689.75H689.756H689.763H689.77H689.776H689.783H689.789H689.796H689.802H689.809H689.816H689.822H689.829H689.835H689.842H689.848H689.855H689.861H689.868H689.875H689.881H689.888H689.894H689.901H689.907H689.914H689.92H689.927H689.934H689.94H689.947H689.953H689.96H689.966H689.973H689.979H689.986H689.993H689.999H690.006H690.012H690.019H690.025H690.032H690.038H690.045H690.052H690.058H690.065H690.071H690.078H690.084H690.091H690.098H690.104H690.111H690.117H690.124H690.13H690.137H690.143H690.15H690.157H690.163H690.17H690.176H690.183H690.189H690.196H690.202H690.209H690.216H690.222H690.229H690.235H690.242H690.248H690.255H690.261H690.268H690.275H690.281H690.288H690.294H690.301H690.307H690.314H690.32H690.327H690.334H690.34H690.347H690.353H690.36H690.366H690.373H690.38H690.386H690.393H690.399H690.406H690.412H690.419H690.425H690.432H690.439H690.445H690.452H690.458H690.465H690.471H690.478H690.484H690.491H690.498H690.504H690.511H690.517H690.524H690.53H690.537H690.543H690.55H690.557H690.563H690.57H690.576H690.583H690.589H690.596H690.602H690.609H690.616H690.622H690.629H690.635H690.642H690.648H690.655H690.662H690.668H690.675H690.681H690.688H690.694H690.701H690.707H690.714H690.721H690.727H690.734H690.74H690.747H690.753H690.76H690.766H690.773H690.78H690.786H690.793H690.799H690.806H690.812H690.819H690.825H690.832H690.839H690.845H690.852H690.858H690.865H690.871H690.878H690.884H690.891H690.898H690.904H690.911H690.917H690.924H690.93H690.937H690.944H690.95H690.957H690.963H690.97H690.976H690.983H690.989H690.996H691.003H691.009H691.016H691.022H691.029H691.035H691.042H691.048H691.055H691.062H691.068H691.075H691.081H691.088H691.094H691.101H691.107H691.114H691.121H691.127H691.134H691.14H691.147H691.153H691.16H691.167H691.173H691.18H691.186H691.193H691.199H691.206H691.212H691.219H691.226H691.232H691.239H691.245H691.252H691.258H691.265H691.271H691.278H691.285H691.291H691.298H691.304H691.311H691.317H691.324H691.331H691.337H691.344H691.35H691.357H691.363H691.37H691.376H691.383H691.39H691.396H691.403H691.409H691.416H691.422H691.429H691.435H691.442H691.449H691.455H691.462H691.468H691.475H691.481H691.488H691.494H691.501H691.508H691.514H691.521H691.527H691.534H691.54H691.547H691.554H691.56H691.567H691.573H691.58H691.586H691.593H691.599H691.606H691.613H691.619H691.626H691.632H691.639H691.645H691.652H691.658H691.665H691.672H691.678H691.685H691.691H691.698H691.704H691.711H691.718H691.724H691.731H691.737H691.744H691.75H691.757H691.763H691.77H691.777H691.783H691.79H691.796H691.803H691.809H691.816H691.822H691.829H691.836H691.842H691.849H691.855H691.862H691.868H691.875H691.882H691.888H691.895H691.901H691.908H691.914H691.921H691.927H691.934C692.097 536.816 692.268 536.741 692.393 536.624C692.519 536.507 692.604 536.343 692.583 536.161C692.195 532.817 691.876 527.942 692.855 524.032C693.344 522.078 694.157 520.369 695.442 519.212C696.726 518.057 698.487 517.447 700.884 517.698C701.024 517.713 701.168 517.655 701.282 517.566C701.396 517.477 701.487 517.351 701.516 517.219L701.516 517.219C703.343 508.924 702.973 498.48 696.89 491.917C692.445 487.122 686.495 485.602 680.28 485.602C674.105 485.602 667.66 487.102 662.156 488.383L662.051 488.407C658.35 489.268 654.89 488.934 651.435 488.412C650.812 488.317 650.189 488.217 649.564 488.116C646.728 487.659 643.865 487.198 640.853 487.291L640.854 487.341L640.853 487.291C638.772 487.355 636.945 487.915 635.564 489.002C634.182 490.09 633.252 491.702 632.96 493.862L633.009 493.868L632.96 493.862C632.595 496.555 632.965 498.758 633.856 500.551C634.748 502.343 636.159 503.72 637.873 504.763C641.299 506.846 645.938 507.596 650.07 507.654Z" fill="#FFA4A4" stroke="#FFA4A4" stroke-width="0.1"/>
<path d="M701.065 516.426L701.065 516.426C700.868 516.362 700.694 516.391 700.56 516.478C700.426 516.565 700.334 516.706 700.292 516.86C700.207 517.168 700.318 517.548 700.716 517.677C703.26 518.501 704.639 520.388 705.238 522.631C705.837 524.876 705.653 527.475 705.07 529.709C704.104 533.407 701.326 536.006 697.68 537.055C697.554 537.091 697.429 537.177 697.338 537.288C697.247 537.398 697.188 537.539 697.204 537.686L697.204 537.687C697.433 539.793 696.639 541.875 695.446 543.794C694.253 545.712 692.665 547.46 691.316 548.897C691.174 549.048 691.123 549.22 691.137 549.384C691.152 549.547 691.231 549.699 691.344 549.812C691.457 549.926 691.607 550.003 691.766 550.013C691.927 550.023 692.094 549.964 692.236 549.813C695.16 546.7 697.701 543.313 698.482 539.029C698.559 538.602 698.55 538.353 698.524 538.204C698.513 538.133 698.497 538.086 698.487 538.056L698.486 538.05C698.485 538.049 698.485 538.049 698.485 538.049C698.494 538.047 698.505 538.046 698.519 538.044L698.529 538.042C698.58 538.035 698.656 538.024 698.766 537.999C698.984 537.948 699.336 537.843 699.893 537.604C701.538 536.901 703.149 535.786 704.289 534.397C706.404 531.82 707.367 527.903 706.92 524.344C706.472 520.785 704.611 517.574 701.065 516.426Z" fill="#FFA4A4" stroke="#FFA4A4" stroke-width="0.1"/>
<path d="M694.963 533.208L694.963 533.208C695.007 533.619 695.355 533.824 695.673 533.825C695.833 533.826 695.991 533.776 696.105 533.67C696.219 533.563 696.284 533.403 696.262 533.197L696.262 533.197C696.016 530.899 696.012 528.518 696.352 526.233C696.495 525.269 696.673 524.207 697.108 523.371C697.325 522.954 697.604 522.596 697.974 522.334C698.343 522.073 698.804 521.907 699.387 521.878C700.12 521.842 700.904 522.025 701.591 522.294L701.591 522.294C701.784 522.369 701.955 522.349 702.089 522.267C702.221 522.185 702.312 522.046 702.354 521.891C702.438 521.584 702.332 521.194 701.947 521.043C700.09 520.317 698.685 520.418 697.634 521.065C696.586 521.71 695.901 522.891 695.465 524.3C694.595 527.117 694.714 530.877 694.963 533.208Z" fill="#FFA4A4" stroke="#FFA4A4" stroke-width="0.1"/>
<path d="M426 560.5L462.575 443.638C465.204 435.239 473.014 429.546 481.814 429.613L664 431" stroke="#FFA4A4" stroke-width="1.7"/>
<defs>
<clipPath id="clip0_625_7594">
<rect width="62.6041" height="62.6041" fill="white" transform="matrix(1 0 -0.224951 0.97437 519.372 465.522)"/>
</clipPath>
</defs>
</svg>
