<svg width="71" height="68" viewBox="0 0 71 68" fill="none" xmlns="http://www.w3.org/2000/svg">
<g filter="url(#filter0_d_931_97)">
<circle cx="33" cy="33.7388" r="28" fill="#406CE3"/>
</g>
<path d="M33.0004 42.75C32.7522 42.7515 32.5091 42.679 32.3022 42.5417C32.0953 42.4044 31.9339 42.2087 31.8387 41.9794C31.7435 41.7501 31.7187 41.4976 31.7676 41.2542C31.8164 41.0107 31.9366 40.7874 32.1129 40.6125L38.7379 34L32.1129 27.3875C31.9082 27.1484 31.8011 26.8408 31.8133 26.5262C31.8254 26.2116 31.9559 25.9132 32.1785 25.6906C32.4011 25.468 32.6995 25.3375 33.0141 25.3254C33.3287 25.3132 33.6363 25.4203 33.8754 25.625L41.3754 33.125C41.6082 33.3592 41.7389 33.6761 41.7389 34.0063C41.7389 34.3365 41.6082 34.6533 41.3754 34.8875L33.8754 42.3875C33.6426 42.6185 33.3284 42.7487 33.0004 42.75Z" fill="white"/>
<path opacity="0.5" d="M24.5004 42.75C24.2522 42.7514 24.0091 42.6789 23.8022 42.5417C23.5953 42.4044 23.4339 42.2086 23.3387 41.9793C23.2435 41.75 23.2187 41.4976 23.2676 41.2541C23.3164 41.0107 23.4366 40.7873 23.6129 40.6125L30.2379 34L23.6129 27.3875C23.3776 27.1521 23.2453 26.8329 23.2453 26.5C23.2453 26.1671 23.3776 25.8479 23.6129 25.6125C23.8483 25.3771 24.1676 25.2449 24.5004 25.2449C24.8333 25.2449 25.1526 25.3771 25.3879 25.6125L32.8879 33.1125C33.1207 33.3467 33.2514 33.6635 33.2514 33.9937C33.2514 34.324 33.1207 34.6408 32.8879 34.875L25.3879 42.375C25.2722 42.4931 25.1341 42.5871 24.9818 42.6514C24.8294 42.7158 24.6658 42.7493 24.5004 42.75Z" fill="white"/>
<defs>
<filter id="filter0_d_931_97" x="-5" y="-0.26123" width="76" height="76" filterUnits="userSpaceOnUse" color-interpolation-filters="sRGB">
<feFlood flood-opacity="0" result="BackgroundImageFix"/>
<feColorMatrix in="SourceAlpha" type="matrix" values="0 0 0 0 0 0 0 0 0 0 0 0 0 0 0 0 0 0 127 0" result="hardAlpha"/>
<feOffset dy="4"/>
<feGaussianBlur stdDeviation="5"/>
<feComposite in2="hardAlpha" operator="out"/>
<feColorMatrix type="matrix" values="0 0 0 0 0 0 0 0 0 0 0 0 0 0 0 0 0 0 0.25 0"/>
<feBlend mode="normal" in2="BackgroundImageFix" result="effect1_dropShadow_931_97"/>
<feBlend mode="normal" in="SourceGraphic" in2="effect1_dropShadow_931_97" result="shape"/>
</filter>
</defs>
</svg>
