<svg width="30" height="30" viewBox="0 0 30 30" fill="none" xmlns="http://www.w3.org/2000/svg">
<g clip-path="url(#clip0_625_8309)">
<path d="M27.24 23.3794C26.7863 24.4276 26.2492 25.3924 25.627 26.2794C24.7789 27.4886 24.0845 28.3256 23.5493 28.7904C22.7197 29.5533 21.8309 29.9441 20.879 29.9663C20.1957 29.9663 19.3717 29.7719 18.4125 29.3774C17.4501 28.9848 16.5657 28.7904 15.757 28.7904C14.9089 28.7904 13.9993 28.9848 13.0263 29.3774C12.0519 29.7719 11.2669 29.9774 10.6668 29.9978C9.75403 30.0367 8.84424 29.6348 7.93612 28.7904C7.35651 28.2849 6.63153 27.4182 5.76304 26.1905C4.83122 24.8794 4.06514 23.3591 3.46497 21.6258C2.82221 19.7536 2.5 17.9407 2.5 16.1856C2.5 14.1751 2.93443 12.4411 3.80459 10.988C4.48845 9.82079 5.39824 8.90007 6.53691 8.22417C7.67558 7.54826 8.90591 7.20383 10.2309 7.18179C10.9558 7.18179 11.9066 7.40604 13.088 7.84677C14.2661 8.28898 15.0226 8.51323 15.3542 8.51323C15.6022 8.51323 16.4425 8.25102 17.8671 7.72825C19.2143 7.24345 20.3513 7.04272 21.2827 7.12179C23.8067 7.32549 25.703 8.32046 26.964 10.113C24.7067 11.4807 23.5901 13.3964 23.6123 15.8539C23.6327 17.7681 24.3271 19.3611 25.6919 20.6258C26.3103 21.2128 27.0011 21.6665 27.7696 21.9888C27.6029 22.4721 27.427 22.935 27.24 23.3794ZM21.4512 0.600507C21.4512 2.10085 20.9031 3.50172 19.8106 4.79834C18.4921 6.33978 16.8973 7.23049 15.1679 7.08994C15.1459 6.90995 15.1331 6.72051 15.1331 6.52144C15.1331 5.08111 15.7601 3.53968 16.8736 2.27934C17.4295 1.64122 18.1365 1.11062 18.9939 0.687355C19.8494 0.270405 20.6587 0.039822 21.4198 0.000335693C21.442 0.200908 21.4512 0.401493 21.4512 0.600487V0.600507Z" fill="black"/>
</g>
<defs>
<clipPath id="clip0_625_8309">
<rect width="30" height="30" fill="white"/>
</clipPath>
</defs>
</svg>
