<svg width="72" height="69" viewBox="0 0 72 69" fill="none" xmlns="http://www.w3.org/2000/svg">
<g filter="url(#filter0_d_600_6549)">
<circle cx="33.9023" cy="34.6587" r="28" fill="#406CE3"/>
</g>
<path d="M33.9028 43.67C33.6545 43.6714 33.4114 43.5989 33.2045 43.4616C32.9976 43.3244 32.8363 43.1286 32.7411 42.8993C32.6459 42.67 32.6211 42.4175 32.6699 42.1741C32.7188 41.9307 32.839 41.7073 33.0153 41.5325L39.6403 34.92L33.0153 28.3075C32.8105 28.0683 32.7035 27.7607 32.7156 27.4461C32.7278 27.1315 32.8582 26.8331 33.0808 26.6105C33.3034 26.3879 33.6019 26.2575 33.9165 26.2453C34.2311 26.2332 34.5387 26.3402 34.7778 26.545L42.2778 34.045C42.5106 34.2792 42.6413 34.596 42.6413 34.9262C42.6413 35.2564 42.5106 35.5733 42.2778 35.8075L34.7778 43.3075C34.545 43.5384 34.2307 43.6686 33.9028 43.67Z" fill="white"/>
<path opacity="0.5" d="M25.4028 43.6699C25.1545 43.6714 24.9114 43.5988 24.7045 43.4616C24.4976 43.3243 24.3363 43.1286 24.2411 42.8993C24.1459 42.67 24.1211 42.4175 24.1699 42.1741C24.2188 41.9306 24.339 41.7073 24.5153 41.5324L31.1403 34.9199L24.5153 28.3074C24.2799 28.072 24.1477 27.7528 24.1477 27.4199C24.1477 27.087 24.2799 26.7678 24.5153 26.5324C24.7507 26.297 25.0699 26.1648 25.4028 26.1648C25.7357 26.1648 26.0549 26.297 26.2903 26.5324L33.7903 34.0324C34.0231 34.2666 34.1538 34.5834 34.1538 34.9137C34.1538 35.2439 34.0231 35.5607 33.7903 35.7949L26.2903 43.2949C26.1745 43.413 26.0365 43.507 25.8841 43.5714C25.7318 43.6357 25.5682 43.6692 25.4028 43.6699Z" fill="white"/>
<defs>
<filter id="filter0_d_600_6549" x="-4.09766" y="0.658691" width="76" height="76" filterUnits="userSpaceOnUse" color-interpolation-filters="sRGB">
<feFlood flood-opacity="0" result="BackgroundImageFix"/>
<feColorMatrix in="SourceAlpha" type="matrix" values="0 0 0 0 0 0 0 0 0 0 0 0 0 0 0 0 0 0 127 0" result="hardAlpha"/>
<feOffset dy="4"/>
<feGaussianBlur stdDeviation="5"/>
<feComposite in2="hardAlpha" operator="out"/>
<feColorMatrix type="matrix" values="0 0 0 0 0 0 0 0 0 0 0 0 0 0 0 0 0 0 0.25 0"/>
<feBlend mode="normal" in2="BackgroundImageFix" result="effect1_dropShadow_600_6549"/>
<feBlend mode="normal" in="SourceGraphic" in2="effect1_dropShadow_600_6549" result="shape"/>
</filter>
</defs>
</svg>
